<svg width="154" height="72" viewBox="0 0 154 72" fill="none" xmlns="http://www.w3.org/2000/svg">
<g filter="url(#filter0_d_672_47)">
<path fill-rule="evenodd" clip-rule="evenodd" d="M17.0714 20.9178C17.0714 20.9178 22.2924 22.8262 25.082 23.4792C27.8717 24.1323 35.3958 25.2077 35.3958 25.2077C35.3958 25.2077 29.253 29.0825 22.9019 27.1451C16.5508 25.2077 17.0714 20.9178 17.0714 20.9178Z" fill="#313131"/>
</g>
<g filter="url(#filter1_d_672_47)">
<path fill-rule="evenodd" clip-rule="evenodd" d="M70.9267 20.9178C70.9267 20.9178 65.7058 22.8262 62.9161 23.4792C60.1264 24.1323 52.6023 25.2077 52.6023 25.2077C52.6023 25.2077 58.7452 29.0825 65.0962 27.1451C71.4473 25.2077 70.9267 20.9178 70.9267 20.9178Z" fill="#313131"/>
</g>
<path opacity="0.328" d="M43.858 71.9733C43.858 71.9733 22.2896 55.8071 18.7535 35.527C30.1774 42.0729 33.6741 33.8932 43.858 33.8932V71.9733ZM44.858 33.8932C55.0419 33.8932 58.5385 42.0729 69.9625 35.527C66.4264 55.8071 44.858 71.9733 44.858 71.9733V33.8932Z" fill="url(#paint0_linear_672_47)"/>
<path d="M43.3448 0.326416C58.0755 0.326546 72.5929 7.51978 72.5929 7.51978V9.7356C72.5526 9.74597 58.7236 13.3019 43.3448 13.302C27.9434 13.302 15.9327 9.7356 15.9327 9.7356V7.51978C15.9327 7.51978 28.614 0.326416 43.3448 0.326416Z" fill="url(#paint1_linear_672_47)"/>
<path d="M108.939 34.2713C108.499 35.8006 108.113 37.1365 107.779 38.2791C106.812 41.408 105.696 44.4139 104.43 47.2967C103.182 50.1795 101.837 52.3504 100.396 53.8094C98.9722 55.2508 97.3901 56.367 95.6499 57.158C93.9272 57.9666 92.2134 58.327 90.5083 58.2391C88.8032 58.1512 87.3091 57.5359 86.0259 56.3934C85.1294 55.6024 84.4175 54.6268 83.8901 53.4666C83.3628 52.2889 83.0288 51.076 82.8882 49.8279C82.8354 49.4764 82.8794 49.2391 83.02 49.116C83.143 48.9754 83.3628 48.8787 83.6792 48.826C83.8022 48.7557 83.8989 48.5184 83.9692 48.1141C84.0395 47.6922 84.1098 47.0858 84.1802 46.2947C84.268 45.5037 84.3471 44.8973 84.4175 44.4754C84.4702 44.0359 84.5581 43.7459 84.6811 43.6053C84.9096 43.3592 85.1733 43.2361 85.4721 43.2361C85.7534 43.2186 86.0698 43.2625 86.4214 43.368C86.6675 43.4383 87.1245 43.6932 87.7925 44.1326C88.4604 44.5721 88.7944 44.7918 88.7944 44.7918C88.7944 44.8094 88.7856 44.8182 88.768 44.8182C88.6274 44.9764 88.5307 45.0906 88.478 45.1609C88.2846 45.0203 88.0473 44.9324 87.7661 44.8973C87.4673 44.8445 87.3003 44.8709 87.2651 44.9764C87.1948 45.117 87.186 45.3367 87.2388 45.6356C87.2388 45.6531 87.2388 45.6707 87.2388 45.6883C87.3794 45.9695 87.4936 46.1981 87.5815 46.3738C88.0561 47.8504 88.8999 49.0984 90.1128 50.118C91.3432 51.1375 92.688 51.7967 94.147 52.0955C95.6059 52.3943 96.8979 52.2713 98.0229 51.7264C97.6889 51.4451 97.6802 51.0672 97.9966 50.5926C98.7173 49.4324 99.3764 48.0526 99.9741 46.4529C100.589 44.8358 101.09 43.2889 101.477 41.8123C101.881 40.3182 102.18 39.0613 102.374 38.0418C102.497 37.3387 102.611 36.6795 102.716 36.0643C102.804 35.4666 102.954 34.5789 103.165 33.4012C103.639 30.5711 103.956 28.4442 104.114 27.0203C104.079 26.8094 104.105 26.3611 104.193 25.6756C104.21 25.5526 104.307 25.2889 104.483 24.8846C104.518 24.7791 104.544 24.7088 104.562 24.6736C104.632 24.4979 104.676 24.1727 104.694 23.6981C104.694 23.6453 104.694 23.6102 104.694 23.5926C104.94 22.7313 105.177 21.8611 105.406 20.9822C103.753 21.5096 101.899 22.0457 99.8423 22.5906C99.8247 22.5906 99.8159 22.5906 99.8159 22.5906C99.7983 22.5906 99.7895 22.5906 99.7895 22.5906C99.772 22.5906 99.6841 22.5994 99.5259 22.617C99.5083 22.617 99.4907 22.617 99.4731 22.617C99.4555 22.7049 99.4468 22.7752 99.4468 22.8279C99.4468 22.8279 99.4643 22.8279 99.4995 22.8279C99.5874 22.8455 99.6489 22.8543 99.6841 22.8543C101.178 22.5555 102.611 22.2303 103.982 21.8787C103.999 21.9139 104.035 21.9754 104.087 22.0633C104.105 22.0984 104.114 22.116 104.114 22.116C102.567 22.5555 101.108 22.9246 99.7368 23.2234C97.6098 23.6629 95.4565 23.9442 93.2768 24.0672C93.1011 24.0848 92.8198 24.1199 92.4331 24.1727C91.73 24.2606 91.2114 24.2869 90.8774 24.2518C89.8403 24.2166 89.313 23.3113 89.2954 21.5359C89.1196 20.8504 88.9526 19.8748 88.7944 18.6092C88.7768 18.5213 88.7593 18.3983 88.7417 18.2401C88.6714 17.6776 88.645 17.2733 88.6626 17.0272C88.6802 16.4295 89.0669 16.1658 89.8227 16.2361C90.1567 16.2537 90.728 16.2889 91.5366 16.3416C92.2925 16.4119 92.7407 16.4471 92.8813 16.4471C94.4634 16.535 95.7641 16.6317 96.7837 16.7371C96.854 16.7371 96.9858 16.7371 97.1792 16.7371C97.3725 16.7371 97.5132 16.7459 97.6011 16.7635C98.0757 16.7635 98.6206 16.7195 99.2358 16.6317C99.4468 16.5965 99.605 16.5701 99.7104 16.5526C99.7807 16.5701 99.9389 16.5877 100.185 16.6053C100.519 16.658 100.765 16.6932 100.923 16.7108C100.958 16.7108 101.002 16.7108 101.055 16.7108C101.161 16.7108 101.231 16.7108 101.266 16.7108C101.688 16.6756 102.321 16.6229 103.165 16.5526C105.678 16.3768 107.612 16.1746 108.965 15.9461C110.09 15.7527 111.787 15.4012 114.054 14.8914C115.249 14.6277 116.146 14.4344 116.744 14.3113C117.289 14.2059 117.719 14.118 118.036 14.0477C118.264 14.2234 118.466 14.3641 118.642 14.4695C118.449 14.6805 118.229 14.9178 117.983 15.1815C117.245 15.4803 116.48 15.7967 115.689 16.1307C115.373 16.5174 114.995 16.9744 114.555 17.5018C112.481 18.3455 110.925 18.9695 109.888 19.3738C110.574 19.7781 110.987 20.077 111.127 20.2703C111.163 20.2703 111.198 20.2879 111.233 20.3231C111.866 20.6395 112.279 20.9383 112.472 21.2195C112.683 21.4305 112.797 21.659 112.815 21.9051C112.833 22.1336 112.806 22.4588 112.736 22.8807C112.718 22.9861 112.683 23.1356 112.63 23.3289C112.578 23.4695 112.542 23.575 112.525 23.6453C112.49 23.7332 112.446 23.8738 112.393 24.0672C112.235 24.577 112.121 24.9549 112.05 25.201C111.98 25.4295 111.874 25.7723 111.734 26.2293C111.505 26.9149 111.356 27.4334 111.286 27.785C111.215 28.1014 111.092 28.5936 110.916 29.2615C110.67 30.1053 110.521 30.7381 110.468 31.16C109.906 33.5682 109.352 35.7391 108.807 37.6727C108.719 37.5848 108.649 37.5233 108.596 37.4881C108.772 36.4334 108.948 35.3611 109.124 34.2713C109.088 34.2713 109.036 34.2713 108.965 34.2713C108.948 34.2713 108.939 34.2713 108.939 34.2713ZM86.0259 53.9149C86.1665 54.1609 86.3247 54.4158 86.5005 54.6795C86.5356 54.7147 86.5708 54.7498 86.6059 54.785C86.6411 54.785 86.685 54.7938 86.7378 54.8113C86.7554 54.8113 86.7641 54.8113 86.7641 54.8113C86.8169 54.8289 86.8784 54.8377 86.9487 54.8377C86.9487 54.8201 86.9487 54.8026 86.9487 54.785C86.9487 54.7498 86.9487 54.7322 86.9487 54.7322C86.9487 54.6971 86.9399 54.6531 86.9223 54.6004C86.852 54.4422 86.7993 54.3104 86.7641 54.2049C86.5356 53.9061 86.3598 53.66 86.2368 53.4666C86.1313 53.3084 85.9819 53.0535 85.7886 52.702C85.5776 52.2977 85.3843 51.8846 85.2085 51.4627C85.1557 51.3397 85.0854 51.2078 84.9975 51.0672C85.0151 51.1902 85.0327 51.3133 85.0503 51.4363C85.1382 51.7527 85.2085 52.0164 85.2612 52.2274C85.3139 52.4031 85.393 52.6492 85.4985 52.9656C85.5513 53.0184 85.604 53.0711 85.6567 53.1238C85.7973 53.4578 85.9204 53.7215 86.0259 53.9149ZM88.3989 56.1561C88.4868 56.2615 88.5835 56.367 88.6889 56.4725C88.7593 56.5252 88.8559 56.6131 88.979 56.7361C88.9966 56.7361 89.0054 56.7361 89.0054 56.7361C89.0229 56.7361 89.0581 56.7361 89.1108 56.7361C89.1636 56.7361 89.2075 56.7361 89.2427 56.7361C89.2427 56.7186 89.2427 56.6922 89.2427 56.657C89.2427 56.6395 89.2427 56.6307 89.2427 56.6307C89.2427 56.5955 89.2427 56.5692 89.2427 56.5516C89.0493 56.4461 88.8559 56.3318 88.6626 56.2088C88.5395 56.1912 88.4516 56.1736 88.3989 56.1561ZM87.2915 55.2068C87.2915 55.2244 87.2915 55.2508 87.2915 55.2859C87.2915 55.3035 87.2915 55.3211 87.2915 55.3387C87.2915 55.3914 87.2915 55.4354 87.2915 55.4705C87.2915 55.4705 87.3003 55.4705 87.3179 55.4705C87.4936 55.6287 87.6255 55.743 87.7134 55.8133C87.7661 55.8133 87.8276 55.8133 87.8979 55.8133C87.9331 55.8309 87.9595 55.8397 87.977 55.8397C87.977 55.8045 87.977 55.7693 87.977 55.7342C87.977 55.699 87.977 55.6727 87.977 55.6551C87.8716 55.5848 87.7309 55.4793 87.5552 55.3387C87.5024 55.3211 87.4233 55.2772 87.3179 55.2068C87.3003 55.2068 87.2915 55.2068 87.2915 55.2068ZM110.468 25.0428C110.345 25.7986 101.635 51.767 101.477 52.558C101.372 53.2435 109.827 28.7254 109.704 29.3934C109.581 30.0965 109.458 30.7908 109.334 31.4764C109.334 31.494 109.326 31.5291 109.308 31.5818C109.308 31.6697 109.308 31.7313 109.308 31.7664C109.343 31.7664 109.387 31.7752 109.44 31.7928C109.475 31.7928 109.501 31.8016 109.519 31.8192C109.695 30.8699 109.862 29.9207 110.02 28.9715C110.161 28.3387 110.301 27.7234 110.442 27.1258C110.547 26.4227 110.644 25.7283 110.732 25.0428C110.697 25.0428 110.644 25.0428 110.574 25.0428C110.539 25.0428 110.503 25.0428 110.468 25.0428ZM109.255 32.2147C109.203 32.4783 109.15 32.7508 109.097 33.032C109.115 33.0496 109.132 33.0672 109.15 33.0848C109.203 33.1375 109.238 33.1727 109.255 33.1902C109.308 32.8914 109.37 32.5838 109.44 32.2674C109.405 32.2498 109.352 32.241 109.282 32.241C109.282 32.2234 109.273 32.2147 109.255 32.2147Z" fill="#313131"/>
<path d="M116.064 37.1778L115.853 37.2041L115.405 40.4209L116.143 24.9358L115.273 34.3829C115.326 34.0137 115.335 33.4249 115.299 32.6163C115.282 32.0713 115.273 31.667 115.273 31.4034C115.291 31.087 115.264 30.6211 115.194 30.0059C115.141 29.6192 115.106 29.3379 115.089 29.1622C115.071 28.9161 115.027 28.5733 114.957 28.1338C114.939 27.9756 114.93 27.8526 114.93 27.7647C114.913 27.712 114.904 27.6241 114.904 27.501C114.886 27.3252 114.878 27.1846 114.878 27.0791C114.895 26.6749 114.939 26.3584 115.009 26.1299C115.08 25.9014 115.256 25.6729 115.537 25.4444C115.818 25.1456 116.319 24.7852 117.04 24.3633C117.128 24.3106 117.198 24.2666 117.251 24.2315C117.391 24.0733 117.804 23.7569 118.49 23.2823C119.105 22.8428 119.589 22.4825 119.94 22.2012C120.292 21.9024 120.52 21.6475 120.626 21.4366C120.643 21.1377 120.582 20.7422 120.441 20.25C120.318 19.8633 120.292 19.6084 120.362 19.4854C120.45 19.3448 120.749 19.3008 121.258 19.3536C121.628 19.5293 121.962 19.7754 122.26 20.0918C122.401 20.2676 122.533 20.4434 122.656 20.6192C122.902 20.4082 123.104 20.2764 123.262 20.2237C123.456 20.2237 123.711 20.3995 124.027 20.751C124.361 21.085 124.774 21.542 125.266 22.1221C125.723 22.6495 126.005 22.9571 126.11 23.045C126.216 23.1329 126.339 23.2735 126.479 23.4668C126.602 23.6075 126.69 23.7129 126.743 23.7832C126.796 23.836 126.875 23.9239 126.98 24.0469C126.998 24.0645 127.007 24.0821 127.007 24.0997C127.007 24.0997 127.015 24.1084 127.033 24.126C127.156 24.337 127.253 24.4864 127.323 24.5743C127.341 24.5918 127.367 24.6182 127.402 24.6534C127.49 24.794 127.578 24.8819 127.666 24.917C127.877 25.0577 128.017 25.1719 128.088 25.2598C128.158 25.3301 128.237 25.4532 128.325 25.629C128.36 25.7168 128.395 25.7872 128.43 25.8399C128.676 26.2266 128.966 26.8331 129.3 27.6592C129.459 28.0459 129.582 28.336 129.67 28.5293C129.705 28.5997 129.749 28.7051 129.801 28.8457C129.854 28.9864 129.898 29.0918 129.933 29.1622C130.091 29.4961 130.338 29.8741 130.672 30.2959C130.847 30.5069 130.988 30.6827 131.093 30.8233C131.111 30.876 131.137 31.0254 131.173 31.2715C131.208 31.6231 131.252 31.8692 131.304 32.0098C131.304 32.0274 131.313 32.0625 131.331 32.1153C131.366 32.2207 131.392 32.2823 131.41 32.2999L141.324 47.7774C141.447 45.7032 141.693 42.5567 142.062 38.3379C142.097 37.9864 142.124 37.7227 142.141 37.5469C142.141 37.4415 142.15 37.2657 142.168 37.0196C142.291 35.4024 142.317 34.3213 142.247 33.7764C142.229 33.5479 142.168 33.4249 142.062 33.4073C141.974 33.3897 141.895 33.5391 141.825 33.8555C141.702 34.5059 141.535 35.4551 141.324 36.7032L141.113 36.7823C141.166 34.7608 141.28 32.8448 141.456 31.0342C141.561 29.8213 141.64 27.9756 141.693 25.4971C141.746 23.4053 141.807 21.8409 141.878 20.8038C141.878 20.751 141.886 20.6631 141.904 20.5401C141.904 20.5225 141.904 20.5137 141.904 20.5137C141.922 20.4258 141.939 20.294 141.957 20.1182C142.08 19.0284 142.194 18.2198 142.299 17.6924C142.51 16.7081 143.02 15.8819 143.829 15.2139C144.567 14.5811 145.2 13.878 145.727 13.1045C145.745 13.087 145.762 13.0694 145.78 13.0518C146.149 12.6475 146.589 12.5332 147.098 12.709C147.309 12.7442 147.67 12.6563 148.179 12.4454C148.689 12.2344 149.366 11.9268 150.21 11.5225C151.37 10.96 152.038 10.6788 152.214 10.6788C152.477 10.6612 152.697 10.8106 152.873 11.127C153.224 11.7071 153.286 12.3926 153.057 13.1836C153.04 13.2891 152.978 13.4561 152.873 13.6846C152.767 13.9131 152.697 14.0977 152.662 14.2383C152.574 14.5547 152.372 15.1963 152.055 16.1631C151.335 18.3604 150.939 19.7403 150.869 20.3028C150.869 20.3028 150.869 20.3116 150.869 20.3291C150.886 20.3643 150.895 20.3819 150.895 20.3819C150.895 21.0323 150.816 21.5684 150.658 21.9903C150.623 22.1485 150.588 22.2715 150.552 22.3594C149.744 26.1211 149.243 28.8897 149.049 30.6651C149.032 30.8409 149.032 31.0694 149.049 31.3506C149.102 31.8604 149.067 32.3174 148.944 32.7217C148.645 33.6534 148.373 34.8135 148.127 36.2022C148.056 36.6241 147.924 37.2657 147.731 38.127C147.38 39.6915 147.177 40.8516 147.125 41.6075C147.125 41.7657 147.072 42.126 146.966 42.6885C146.879 43.2334 146.826 43.5938 146.808 43.7696C146.808 43.8926 146.773 44.086 146.703 44.3497C146.633 44.5957 146.589 44.7715 146.571 44.877C146.483 45.545 146.351 46.5206 146.175 47.8038C145.947 49.3858 145.78 50.6866 145.674 51.7061C145.569 52.7256 145.516 53.7452 145.516 54.7647C145.516 54.8526 145.508 55.0284 145.49 55.292C145.455 55.626 145.446 55.8457 145.464 55.9512C145.499 56.1622 145.534 56.4522 145.569 56.8213C145.674 57.5948 145.771 58.1924 145.859 58.6143L145.78 59.4844L145.332 60.0645L144.277 60.3282C144.224 60.3457 144.189 60.2315 144.172 59.9854C144.154 59.8624 144.136 59.8008 144.119 59.8008C144.066 59.836 144.005 59.9942 143.934 60.2754C143.864 60.504 143.811 60.627 143.776 60.6446C143.53 60.7676 143.003 60.8995 142.194 61.0401C141.35 61.1983 140.867 61.3389 140.744 61.462C140.55 61.7256 140.366 61.6641 140.19 61.2774C140.032 60.8907 139.909 60.5215 139.821 60.17C139.575 59.0801 139.461 57.7266 139.478 56.1094C139.531 53.8243 139.645 51.7588 139.821 49.9131L139.926 48.6739L139.61 48.3575L138.213 48.3047L126.321 35.3321C126.321 35.3321 126.312 35.3321 126.295 35.3321C126.295 35.2969 126.295 35.2793 126.295 35.2793C126.295 35.2618 126.259 35.2002 126.189 35.0948C126.172 35.0772 126.163 35.0684 126.163 35.0684C126.128 35.0684 126.092 35.086 126.057 35.1211C126.022 35.1387 125.996 35.1563 125.978 35.1739C125.978 35.1915 125.978 35.209 125.978 35.2266C125.996 35.3321 126.013 35.3936 126.031 35.4112L128.299 38.417L128.14 38.7334C127.701 38.1885 127.015 37.3096 126.084 36.0967C124.836 34.5147 123.913 33.3545 123.315 32.6163C123.28 32.5635 123.236 32.502 123.183 32.4317C123.131 32.8711 123.051 33.5391 122.946 34.4356C122.735 36.2813 122.568 37.6524 122.445 38.5489C122.392 38.9356 122.296 39.6563 122.155 40.711C121.311 46.9688 120.705 50.9151 120.336 52.5499C120.3 52.7432 120.221 53.1299 120.098 53.71C119.87 54.8702 119.65 55.837 119.439 56.6104C119.246 57.3838 119.035 57.9288 118.806 58.2452C118.56 58.5967 124.273 21.2784 124.027 21.4366C123.781 21.5772 117.462 59.3086 116.987 59.4844C116.899 59.625 116.785 59.8008 116.644 60.0118C116.222 60.7149 115.888 61.128 115.642 61.251C115.256 61.1807 123.666 23.7832 115.115 59.2735C119.94 28.8194 115.704 51.0997 115.88 47.5665C116.055 44.0332 116.117 40.5704 116.064 37.1778ZM142.115 45.1407C142.045 46.4239 141.983 47.6895 141.93 48.9375C141.895 50.0801 141.869 51.2051 141.851 52.3125C141.851 52.9102 141.86 53.5166 141.878 54.1319C141.913 54.1319 141.966 54.1231 142.036 54.1055C142.089 54.1055 142.133 54.1055 142.168 54.1055C142.185 50.7481 142.335 47.2237 142.616 43.5323C142.757 41.7569 142.932 39.9463 143.143 38.1006C143.161 37.9952 143.187 37.837 143.222 37.626C143.17 37.6436 143.091 37.6612 142.985 37.6788C142.967 37.6788 142.95 37.6788 142.932 37.6788C142.598 40.2276 142.326 42.7149 142.115 45.1407ZM141.218 49.8077L140.928 49.7813L140.348 49.1749C140.278 50.9502 140.243 52.752 140.243 54.5801C140.243 55.0547 140.252 55.5118 140.269 55.9512C140.234 56.1973 140.252 56.6543 140.322 57.3223C140.41 57.9903 140.515 58.3682 140.638 58.4561C140.849 58.6319 140.955 58.3243 140.955 57.5332C140.955 57.5157 140.955 57.4981 140.955 57.4805C140.99 56.7422 141.025 56.1797 141.06 55.793C141.078 55.793 141.087 55.793 141.087 55.793C141.087 55.7754 141.087 55.7666 141.087 55.7666C141.087 53.8858 141.131 51.8995 141.218 49.8077ZM142.089 54.9229C142.053 54.9405 141.992 54.9581 141.904 54.9756C141.869 54.9756 141.834 54.9756 141.799 54.9756C141.799 55.2041 141.799 55.4327 141.799 55.6612C141.834 55.6612 141.86 55.6612 141.878 55.6612C141.878 55.6612 141.93 55.6524 142.036 55.6348C142.071 55.6348 142.089 55.6348 142.089 55.6348C142.089 55.6172 142.089 55.6084 142.089 55.6084C142.106 55.503 142.124 55.3448 142.141 55.1338C142.141 55.0108 142.15 54.9141 142.168 54.8438C142.15 54.8614 142.133 54.879 142.115 54.8965C142.097 54.9141 142.089 54.9229 142.089 54.9229ZM116.776 30.9024L116.882 28.8194L116.618 28.8457L116.407 30.7442L116.381 32.3526L116.143 34.9102L116.381 34.8575L116.46 34.5674L116.618 32.7217L116.776 30.9024ZM116.275 35.9913L116.301 35.253L116.117 35.3057L116.038 36.1758L116.275 35.9913Z" fill="#313131"/>
<defs>
<filter id="filter0_d_672_47" x="0.0610352" y="3.91779" width="52.3348" height="40.7698" filterUnits="userSpaceOnUse" color-interpolation-filters="sRGB">
<feFlood flood-opacity="0" result="BackgroundImageFix"/>
<feColorMatrix in="SourceAlpha" type="matrix" values="0 0 0 0 0 0 0 0 0 0 0 0 0 0 0 0 0 0 127 0" result="hardAlpha"/>
<feOffset/>
<feGaussianBlur stdDeviation="8.5"/>
<feColorMatrix type="matrix" values="0 0 0 0 1 0 0 0 0 1 0 0 0 0 1 0 0 0 0.314 0"/>
<feBlend mode="normal" in2="BackgroundImageFix" result="effect1_dropShadow_672_47"/>
<feBlend mode="normal" in="SourceGraphic" in2="effect1_dropShadow_672_47" result="shape"/>
</filter>
<filter id="filter1_d_672_47" x="35.6023" y="3.91779" width="52.3348" height="40.7698" filterUnits="userSpaceOnUse" color-interpolation-filters="sRGB">
<feFlood flood-opacity="0" result="BackgroundImageFix"/>
<feColorMatrix in="SourceAlpha" type="matrix" values="0 0 0 0 0 0 0 0 0 0 0 0 0 0 0 0 0 0 127 0" result="hardAlpha"/>
<feOffset/>
<feGaussianBlur stdDeviation="8.5"/>
<feColorMatrix type="matrix" values="0 0 0 0 1 0 0 0 0 1 0 0 0 0 1 0 0 0 0.314 0"/>
<feBlend mode="normal" in2="BackgroundImageFix" result="effect1_dropShadow_672_47"/>
<feBlend mode="normal" in="SourceGraphic" in2="effect1_dropShadow_672_47" result="shape"/>
</filter>
<linearGradient id="paint0_linear_672_47" x1="18.7535" y1="32.0597" x2="44.8453" y2="68.1651" gradientUnits="userSpaceOnUse">
<stop offset="0.163462" stop-color="#99494A"/>
<stop offset="0.658654" stop-color="#99494A" stop-opacity="0.509202"/>
<stop offset="1" stop-color="#99494A" stop-opacity="0"/>
</linearGradient>
<linearGradient id="paint1_linear_672_47" x1="15.9327" y1="6.81411" x2="72.6295" y2="6.81411" gradientUnits="userSpaceOnUse">
<stop stop-color="#99494A"/>
<stop offset="1" stop-color="#99494A" stop-opacity="0"/>
</linearGradient>
</defs>
</svg>
