<svg width="89" height="73" viewBox="0 0 89 73" fill="none" xmlns="http://www.w3.org/2000/svg">
<g filter="url(#filter0_d_671_6)">
<path fill-rule="evenodd" clip-rule="evenodd" d="M17.9073 21.1055C17.9073 21.1055 23.1283 23.0139 25.918 23.667C28.7077 24.3201 36.2318 25.3954 36.2318 25.3954C36.2318 25.3954 30.0889 29.2702 23.7378 27.3328C17.3867 25.3954 17.9073 21.1055 17.9073 21.1055Z" fill="white"/>
</g>
<g filter="url(#filter1_d_671_6)">
<path fill-rule="evenodd" clip-rule="evenodd" d="M71.7627 21.1055C71.7627 21.1055 66.5417 23.0139 63.752 23.667C60.9623 24.3201 53.4382 25.3954 53.4382 25.3954C53.4382 25.3954 59.5811 29.2702 65.9322 27.3328C72.2833 25.3954 71.7627 21.1055 71.7627 21.1055Z" fill="white"/>
</g>
<path opacity="0.328" d="M44.6939 72.1609C44.6939 72.1609 23.1255 55.9948 19.5894 35.7147C31.0134 42.2606 34.51 34.0809 44.6939 34.0809V72.1609ZM45.6939 34.0809C55.8778 34.0809 59.3744 42.2606 70.7984 35.7147C67.2623 55.9948 45.6939 72.1609 45.6939 72.1609V34.0809Z" fill="url(#paint0_linear_671_6)"/>
<path d="M44.1808 0.51413C58.9115 0.51426 73.4288 7.70749 73.4288 7.70749V9.92331C73.3885 9.93368 59.5596 13.4897 44.1808 13.4897C28.7794 13.4897 16.7687 9.92331 16.7687 9.92331V7.70749C16.7687 7.70749 29.4499 0.51413 44.1808 0.51413Z" fill="url(#paint1_linear_671_6)"/>
<defs>
<filter id="filter0_d_671_6" x="0.896973" y="4.1055" width="52.3348" height="40.7698" filterUnits="userSpaceOnUse" color-interpolation-filters="sRGB">
<feFlood flood-opacity="0" result="BackgroundImageFix"/>
<feColorMatrix in="SourceAlpha" type="matrix" values="0 0 0 0 0 0 0 0 0 0 0 0 0 0 0 0 0 0 127 0" result="hardAlpha"/>
<feOffset/>
<feGaussianBlur stdDeviation="8.5"/>
<feColorMatrix type="matrix" values="0 0 0 0 1 0 0 0 0 1 0 0 0 0 1 0 0 0 0.314 0"/>
<feBlend mode="normal" in2="BackgroundImageFix" result="effect1_dropShadow_671_6"/>
<feBlend mode="normal" in="SourceGraphic" in2="effect1_dropShadow_671_6" result="shape"/>
</filter>
<filter id="filter1_d_671_6" x="36.4382" y="4.1055" width="52.3348" height="40.7698" filterUnits="userSpaceOnUse" color-interpolation-filters="sRGB">
<feFlood flood-opacity="0" result="BackgroundImageFix"/>
<feColorMatrix in="SourceAlpha" type="matrix" values="0 0 0 0 0 0 0 0 0 0 0 0 0 0 0 0 0 0 127 0" result="hardAlpha"/>
<feOffset/>
<feGaussianBlur stdDeviation="8.5"/>
<feColorMatrix type="matrix" values="0 0 0 0 1 0 0 0 0 1 0 0 0 0 1 0 0 0 0.314 0"/>
<feBlend mode="normal" in2="BackgroundImageFix" result="effect1_dropShadow_671_6"/>
<feBlend mode="normal" in="SourceGraphic" in2="effect1_dropShadow_671_6" result="shape"/>
</filter>
<linearGradient id="paint0_linear_671_6" x1="19.5894" y1="32.2474" x2="45.6812" y2="68.3528" gradientUnits="userSpaceOnUse">
<stop stop-color="#49996D"/>
<stop offset="0.947115" stop-color="#4A9C6F" stop-opacity="0"/>
</linearGradient>
<linearGradient id="paint1_linear_671_6" x1="16.7687" y1="7.00182" x2="73.4655" y2="7.00182" gradientUnits="userSpaceOnUse">
<stop stop-color="#4B9F71"/>
<stop offset="1" stop-color="#4B9F71" stop-opacity="0"/>
</linearGradient>
</defs>
</svg>
