<svg width="289" height="73" viewBox="0 0 289 73" fill="none" xmlns="http://www.w3.org/2000/svg">
<g filter="url(#filter0_d_672_10)">
<path fill-rule="evenodd" clip-rule="evenodd" d="M17.0403 21.127C17.0403 21.127 22.2613 23.0354 25.051 23.6884C27.8407 24.3415 35.3647 25.4169 35.3647 25.4169C35.3647 25.4169 29.2219 29.2917 22.8708 27.3543C16.5197 25.4169 17.0403 21.127 17.0403 21.127Z" fill="black"/>
</g>
<g filter="url(#filter1_d_672_10)">
<path fill-rule="evenodd" clip-rule="evenodd" d="M70.8957 21.127C70.8957 21.127 65.6747 23.0354 62.885 23.6884C60.0953 24.3415 52.5712 25.4169 52.5712 25.4169C52.5712 25.4169 58.7141 29.2917 65.0652 27.3543C71.4163 25.4169 70.8957 21.127 70.8957 21.127Z" fill="black"/>
</g>
<path opacity="0.328" d="M43.8269 72.1824C43.8269 72.1824 22.2585 56.0163 18.7224 35.7361C30.1464 42.2821 33.643 34.1024 43.8269 34.1024V72.1824ZM44.8269 34.1024C55.0108 34.1024 58.5074 42.2821 69.9314 35.7361C66.3953 56.0163 44.8269 72.1824 44.8269 72.1824V34.1024Z" fill="url(#paint0_linear_672_10)"/>
<path d="M43.3138 0.535614C58.0445 0.535744 72.5618 7.72897 72.5618 7.72897V9.94479C72.5215 9.95517 58.6926 13.5111 43.3138 13.5112C27.9124 13.5112 15.9017 9.94479 15.9017 9.94479V7.72897C15.9017 7.72897 28.5829 0.535614 43.3138 0.535614Z" fill="url(#paint1_linear_672_10)"/>
<path d="M113.174 31.1832C112.735 32.7125 112.348 34.0485 112.014 35.191C111.047 38.3199 109.931 41.3258 108.665 44.2086C107.417 47.0914 106.073 49.2623 104.631 50.7213C103.207 52.1627 101.625 53.2789 99.8851 54.0699C98.1624 54.8785 96.4485 55.2389 94.7435 55.151C93.0384 55.0631 91.5443 54.4479 90.261 53.3053C89.3646 52.5143 88.6526 51.5387 88.1253 50.3785C87.598 49.2008 87.264 47.9879 87.1234 46.7399C87.0706 46.3883 87.1146 46.151 87.2552 46.028C87.3782 45.8873 87.598 45.7906 87.9144 45.7379C88.0374 45.6676 88.1341 45.4303 88.2044 45.026C88.2747 44.6041 88.345 43.9977 88.4153 43.2067C88.5032 42.4156 88.5823 41.8092 88.6526 41.3873C88.7054 40.9479 88.7933 40.6578 88.9163 40.5172C89.1448 40.2711 89.4085 40.1481 89.7073 40.1481C89.9886 40.1305 90.305 40.1744 90.6566 40.2799C90.9026 40.3502 91.3597 40.6051 92.0276 41.0446C92.6956 41.484 93.0296 41.7037 93.0296 41.7037C93.0296 41.7213 93.0208 41.7301 93.0032 41.7301C92.8626 41.8883 92.7659 42.0026 92.7132 42.0729C92.5198 41.9323 92.2825 41.8444 92.0013 41.8092C91.7025 41.7565 91.5355 41.7828 91.5003 41.8883C91.43 42.0289 91.4212 42.2487 91.4739 42.5475C91.4739 42.5651 91.4739 42.5826 91.4739 42.6002C91.6146 42.8815 91.7288 43.11 91.8167 43.2858C92.2913 44.7623 93.1351 46.0104 94.348 47.0299C95.5784 48.0494 96.9232 48.7086 98.3821 49.0074C99.8411 49.3063 101.133 49.1832 102.258 48.6383C101.924 48.3571 101.915 47.9791 102.232 47.5045C102.952 46.3444 103.612 44.9645 104.209 43.3649C104.825 41.7477 105.326 40.2008 105.712 38.7242C106.117 37.2301 106.415 35.9733 106.609 34.9537C106.732 34.2506 106.846 33.5914 106.951 32.9762C107.039 32.3785 107.189 31.4908 107.4 30.3131C107.874 27.483 108.191 25.3561 108.349 23.9323C108.314 23.7213 108.34 23.2731 108.428 22.5875C108.446 22.4645 108.542 22.2008 108.718 21.7965C108.753 21.691 108.78 21.6207 108.797 21.5856C108.867 21.4098 108.911 21.0846 108.929 20.61C108.929 20.5573 108.929 20.5221 108.929 20.5045C109.175 19.6432 109.412 18.7731 109.641 17.8942C107.989 18.4215 106.134 18.9576 104.077 19.5026C104.06 19.5026 104.051 19.5026 104.051 19.5026C104.034 19.5026 104.025 19.5026 104.025 19.5026C104.007 19.5026 103.919 19.5114 103.761 19.5289C103.743 19.5289 103.726 19.5289 103.708 19.5289C103.691 19.6168 103.682 19.6871 103.682 19.7399C103.682 19.7399 103.7 19.7399 103.735 19.7399C103.823 19.7574 103.884 19.7662 103.919 19.7662C105.413 19.4674 106.846 19.1422 108.217 18.7906C108.235 18.8258 108.27 18.8873 108.323 18.9752C108.34 19.0104 108.349 19.028 108.349 19.028C106.802 19.4674 105.343 19.8365 103.972 20.1354C101.845 20.5748 99.6917 20.8561 97.512 20.9791C97.3362 20.9967 97.055 21.0319 96.6683 21.0846C95.9651 21.1725 95.4466 21.1989 95.1126 21.1637C94.0755 21.1285 93.5482 20.2233 93.5306 18.4479C93.3548 17.7623 93.1878 16.7867 93.0296 15.5211C93.012 15.4332 92.9944 15.3102 92.9769 15.152C92.9066 14.5895 92.8802 14.1852 92.8978 13.9391C92.9153 13.3414 93.3021 13.0778 94.0579 13.1481C94.3919 13.1656 94.9632 13.2008 95.7718 13.2535C96.5276 13.3239 96.9759 13.359 97.1165 13.359C98.6985 13.4469 99.9993 13.5436 101.019 13.649C101.089 13.649 101.221 13.649 101.414 13.649C101.608 13.649 101.748 13.6578 101.836 13.6754C102.311 13.6754 102.856 13.6315 103.471 13.5436C103.682 13.5084 103.84 13.4821 103.946 13.4645C104.016 13.4821 104.174 13.4996 104.42 13.5172C104.754 13.5699 105 13.6051 105.159 13.6227C105.194 13.6227 105.238 13.6227 105.29 13.6227C105.396 13.6227 105.466 13.6227 105.501 13.6227C105.923 13.5875 106.556 13.5348 107.4 13.4645C109.913 13.2887 111.847 13.0865 113.201 12.858C114.326 12.6647 116.022 12.3131 118.289 11.8033C119.485 11.5397 120.381 11.3463 120.979 11.2233C121.524 11.1178 121.954 11.0299 122.271 10.9596C122.499 11.1354 122.701 11.276 122.877 11.3815C122.684 11.5924 122.464 11.8297 122.218 12.0934C121.48 12.3922 120.715 12.7086 119.924 13.0426C119.608 13.4293 119.23 13.8864 118.79 14.4137C116.716 15.2574 115.16 15.8815 114.123 16.2858C114.809 16.6901 115.222 16.9889 115.363 17.1823C115.398 17.1823 115.433 17.1998 115.468 17.235C116.101 17.5514 116.514 17.8502 116.707 18.1315C116.918 18.3424 117.033 18.5709 117.05 18.817C117.068 19.0455 117.041 19.3707 116.971 19.7926C116.953 19.8981 116.918 20.0475 116.866 20.2408C116.813 20.3815 116.778 20.4869 116.76 20.5573C116.725 20.6451 116.681 20.7858 116.628 20.9791C116.47 21.4889 116.356 21.8668 116.285 22.1129C116.215 22.3414 116.11 22.6842 115.969 23.1412C115.741 23.8268 115.591 24.3453 115.521 24.6969C115.451 25.0133 115.327 25.5055 115.152 26.1735C114.906 27.0172 114.756 27.65 114.703 28.0719C114.141 30.4801 113.587 32.651 113.042 34.5846C112.954 34.4967 112.884 34.4352 112.831 34.4C113.007 33.3453 113.183 32.2731 113.359 31.1832C113.324 31.1832 113.271 31.1832 113.201 31.1832C113.183 31.1832 113.174 31.1832 113.174 31.1832ZM90.261 50.8268C90.4017 51.0729 90.5599 51.3278 90.7357 51.5914C90.7708 51.6266 90.806 51.6617 90.8411 51.6969C90.8763 51.6969 90.9202 51.7057 90.973 51.7233C90.9905 51.7233 90.9993 51.7233 90.9993 51.7233C91.0521 51.7408 91.1136 51.7496 91.1839 51.7496C91.1839 51.7321 91.1839 51.7145 91.1839 51.6969C91.1839 51.6617 91.1839 51.6442 91.1839 51.6442C91.1839 51.609 91.1751 51.5651 91.1575 51.5123C91.0872 51.3541 91.0345 51.2223 90.9993 51.1168C90.7708 50.818 90.595 50.5719 90.472 50.3785C90.3665 50.2203 90.2171 49.9655 90.0237 49.6139C89.8128 49.2096 89.6194 48.7965 89.4437 48.3746C89.3909 48.2516 89.3206 48.1198 89.2327 47.9791C89.2503 48.1022 89.2679 48.2252 89.2855 48.3483C89.3734 48.6647 89.4437 48.9283 89.4964 49.1393C89.5491 49.3151 89.6282 49.5612 89.7337 49.8776C89.7864 49.9303 89.8392 49.983 89.8919 50.0358C90.0325 50.3698 90.1556 50.6334 90.261 50.8268ZM92.6341 53.068C92.722 53.1735 92.8187 53.2789 92.9241 53.3844C92.9944 53.4371 93.0911 53.525 93.2142 53.6481C93.2318 53.6481 93.2405 53.6481 93.2405 53.6481C93.2581 53.6481 93.2933 53.6481 93.346 53.6481C93.3987 53.6481 93.4427 53.6481 93.4778 53.6481C93.4778 53.6305 93.4778 53.6041 93.4778 53.569C93.4778 53.5514 93.4778 53.5426 93.4778 53.5426C93.4778 53.5074 93.4778 53.4811 93.4778 53.4635C93.2845 53.358 93.0911 53.2438 92.8978 53.1207C92.7747 53.1031 92.6868 53.0856 92.6341 53.068ZM91.5267 52.1188C91.5267 52.1364 91.5267 52.1627 91.5267 52.1979C91.5267 52.2155 91.5267 52.233 91.5267 52.2506C91.5267 52.3033 91.5267 52.3473 91.5267 52.3824C91.5267 52.3824 91.5355 52.3824 91.553 52.3824C91.7288 52.5406 91.8607 52.6549 91.9485 52.7252C92.0013 52.7252 92.0628 52.7252 92.1331 52.7252C92.1683 52.7428 92.1946 52.7516 92.2122 52.7516C92.2122 52.7164 92.2122 52.6813 92.2122 52.6461C92.2122 52.611 92.2122 52.5846 92.2122 52.567C92.1068 52.4967 91.9661 52.3912 91.7903 52.2506C91.7376 52.233 91.6585 52.1891 91.553 52.1188C91.5355 52.1188 91.5267 52.1188 91.5267 52.1188ZM114.703 21.9547C114.58 22.7106 114.44 23.484 114.282 24.275C114.176 24.9606 114.062 25.6373 113.939 26.3053C113.816 27.0084 113.693 27.7028 113.57 28.3883C113.57 28.4059 113.561 28.441 113.543 28.4938C113.543 28.5817 113.543 28.6432 113.543 28.6783C113.578 28.6783 113.622 28.6871 113.675 28.7047C113.71 28.7047 113.737 28.7135 113.754 28.7311C113.93 27.7819 114.097 26.8326 114.255 25.8834C114.396 25.2506 114.536 24.6354 114.677 24.0377C114.783 23.3346 114.879 22.6403 114.967 21.9547C114.932 21.9547 114.879 21.9547 114.809 21.9547C114.774 21.9547 114.739 21.9547 114.703 21.9547ZM113.491 29.1266C113.438 29.3903 113.385 29.6627 113.332 29.944C113.35 29.9615 113.367 29.9791 113.385 29.9967C113.438 30.0494 113.473 30.0846 113.491 30.1022C113.543 29.8033 113.605 29.4957 113.675 29.1793C113.64 29.1617 113.587 29.153 113.517 29.153C113.517 29.1354 113.508 29.1266 113.491 29.1266ZM126.41 49.3502C127.588 49.2623 128.731 48.9899 129.838 48.5328C132.229 47.443 134.066 46.0631 135.349 44.3932C136.421 42.9869 137.221 41.3698 137.748 39.5416C138.276 37.6959 138.293 36.026 137.801 34.5319C137.274 33.2135 136.412 32.1588 135.217 31.3678C134.285 30.7701 133.336 30.3219 132.369 30.0231C131.42 29.7242 130.348 29.5221 129.153 29.4166C128.59 29.3639 128.036 29.3375 127.492 29.3375C127.245 29.1793 126.991 29.0211 126.727 28.8629C127.026 28.6696 127.333 28.485 127.65 28.3092C128.757 28.151 129.891 28.1158 131.051 28.2037C131.772 27.9752 132.501 27.8082 133.24 27.7028C134.417 27.984 135.516 28.3707 136.535 28.8629C137.52 29.4078 138.337 29.9967 138.988 30.6295C139.656 31.2448 140.262 32.027 140.807 32.9762C141.369 34.1012 141.721 35.1998 141.862 36.2721C142.002 37.3268 141.993 38.5309 141.835 39.8844C141.73 40.7106 141.572 41.5192 141.361 42.3102C140.851 44.1559 140.069 45.8785 139.014 47.4781C138.979 47.5133 138.935 47.5836 138.882 47.6891C138.777 47.8297 138.698 47.944 138.645 48.0319C138.662 48.1022 138.68 48.1637 138.698 48.2164C138.715 48.1989 138.75 48.1725 138.803 48.1373C138.891 48.0494 138.952 47.9879 138.988 47.9528C140.218 46.2653 141.132 44.4196 141.73 42.4156C141.976 41.6071 142.169 40.7897 142.31 39.9635C142.486 38.61 142.521 37.4059 142.415 36.3512C142.31 35.2965 142.011 34.1891 141.519 33.0289C141.677 33.1696 141.844 33.3102 142.02 33.4508C142.459 34.5231 142.732 35.569 142.837 36.5885C142.943 37.5905 142.916 38.733 142.758 40.0162C142.635 40.8776 142.451 41.7301 142.204 42.5739C141.466 45.1227 140.244 47.4078 138.539 49.4293C137.766 50.3434 136.931 51.1783 136.034 51.9342C135.226 52.6198 134.25 53.2965 133.108 53.9645C133.09 53.9645 133.081 53.9645 133.081 53.9645C133.011 53.9996 132.976 54.026 132.976 54.0436C130.761 55.3444 128.362 56.1002 125.778 56.3112C124.371 56.3815 123.062 56.2848 121.849 56.0211C121.568 55.9684 121.366 55.9244 121.242 55.8893C120.1 55.5026 119.054 54.984 118.105 54.3336C116.681 53.3317 115.547 52.066 114.703 50.5367C113.772 48.7614 113.35 46.8805 113.438 44.8942C113.526 43.3121 113.772 41.9059 114.176 40.6754C114.58 39.4449 115.204 38.1705 116.048 36.8522C116.98 35.5338 118.087 34.3473 119.37 33.2926C120.478 32.4664 121.831 31.8248 123.431 31.3678C125.031 30.8932 126.534 30.7086 127.94 30.8141L127.992 31.3678C127.078 31.5084 126.305 31.693 125.672 31.9215C126.885 31.9039 128.133 32.1149 129.416 32.5543C130.717 32.9762 131.614 33.5651 132.106 34.3209C132.475 34.901 132.501 35.3756 132.185 35.7448C131.851 36.0963 131.28 36.2897 130.471 36.3248C130.418 36.3248 130.339 36.3248 130.234 36.3248C129.495 36.36 128.907 36.4303 128.467 36.5358C126.727 37.0104 125.048 37.9069 123.431 39.2252C122.675 39.858 122.007 40.7281 121.427 41.8356C120.847 42.943 120.504 44.068 120.399 45.2106C120.311 46.3531 120.566 47.3024 121.163 48.0582C121.656 48.7086 122.376 49.1129 123.326 49.2711C124.275 49.4293 125.303 49.4557 126.41 49.3502ZM165.249 27.9928C166.023 28.2213 166.998 28.8981 168.176 30.0231C169.354 31.1305 170.136 32.2906 170.523 33.5035C170.786 34.3297 170.795 35.3053 170.549 36.4303C170.338 37.4323 169.943 38.5836 169.363 39.8844C168.906 40.8688 168.378 41.8444 167.781 42.8112C167.71 42.9342 167.71 43.1627 167.781 43.4967C167.833 43.8131 167.789 44.068 167.649 44.2614C166.981 45.193 166.181 46.1686 165.249 47.1881C165.074 47.3463 164.827 47.5836 164.511 47.9C163.193 49.2008 162.164 50.1324 161.426 50.6949C161.268 50.8004 161.039 50.9674 160.741 51.1959C159.862 51.8639 159.185 52.3473 158.71 52.6461C158.693 52.6813 158.491 52.8131 158.104 53.0416C157.155 53.569 156.381 53.9645 155.784 54.2281C155.731 54.2633 155.634 54.3073 155.493 54.36C155.089 54.5358 154.782 54.65 154.571 54.7028C153.621 54.984 152.857 55.0807 152.277 54.9928C151.152 54.8346 150.334 54.2985 149.825 53.3844C149.332 53.1031 148.919 52.8043 148.585 52.4879C148.269 52.1715 147.917 51.7672 147.531 51.275C147.39 51.0817 147.276 50.941 147.188 50.8531C146.836 51.9078 146.529 52.5934 146.265 52.9098C145.984 53.2262 145.72 53.4547 145.474 53.5953C145.228 53.736 144.859 53.8766 144.367 54.0172C144.261 54.1403 144.129 54.3073 143.971 54.5182C143.496 55.1862 143.136 55.5729 142.89 55.6783C142.521 55.5729 142.407 54.8873 142.547 53.6217C143.25 49.3326 143.839 45.4127 144.314 41.8619C144.788 38.2936 145.158 34.7867 145.421 31.3414L145.21 31.3678L144.498 34.5846L144.182 34.7428L145.5 24.9869C145.571 24.6178 145.632 24.0201 145.685 23.194C145.702 22.649 145.729 22.2448 145.764 21.9811C145.799 21.6647 145.808 21.1813 145.79 20.5309C145.773 20.1442 145.764 19.8541 145.764 19.6608C145.764 19.4323 145.755 19.0895 145.738 18.6324C145.738 18.4742 145.729 18.3512 145.711 18.2633C145.729 18.193 145.729 18.0963 145.711 17.9733C145.711 17.7975 145.72 17.6656 145.738 17.5778C145.79 17.1559 145.861 16.8307 145.949 16.6022C146.054 16.3737 146.247 16.1539 146.529 15.943C146.827 15.6617 147.355 15.3453 148.111 14.9938C148.199 14.941 148.269 14.9059 148.322 14.8883C148.48 14.7477 148.91 14.4576 149.614 14.0182C150.246 13.6315 150.747 13.3063 151.117 13.0426C151.503 12.7789 151.749 12.5504 151.855 12.3571C151.908 12.0582 151.881 11.6451 151.776 11.1178C151.705 10.7311 151.714 10.4762 151.802 10.3531C151.89 10.2125 152.189 10.1949 152.699 10.3004C153.015 10.4938 153.314 10.7662 153.595 11.1178C153.894 11.5221 154.105 11.944 154.228 12.3834C154.351 12.8053 154.448 13.3151 154.518 13.9127L154.439 17.9205C154.439 17.9381 154.439 17.9645 154.439 17.9996C154.298 18.4918 154.237 18.8082 154.254 18.9489C154.254 19.0367 154.263 19.1422 154.281 19.2653C154.333 19.5992 154.342 19.819 154.307 19.9244C154.237 20.2936 154.114 20.7155 153.938 21.1901C153.727 22.1217 153.314 24.2135 152.699 27.4655C152.136 30.4537 151.758 32.3961 151.565 33.2926C151.477 33.6793 151.319 34.3912 151.09 35.4283C150.317 38.8912 149.728 41.4664 149.324 43.1539C150.132 41.8004 151.117 40.3502 152.277 38.8033C153.437 37.2389 154.676 35.736 155.994 34.2946C157.33 32.8356 158.64 31.5787 159.923 30.524C161.206 29.4518 162.358 28.7311 163.377 28.3619C164.203 28.0631 164.801 27.9401 165.17 27.9928C165.188 27.9928 165.214 27.9928 165.249 27.9928ZM147.689 48.1637C147.636 48.2164 147.592 48.2604 147.557 48.2955C148.102 48.3131 148.568 48.3131 148.954 48.2955C149.359 48.3131 149.781 48.3043 150.22 48.2692C151.152 48.1461 152.11 47.8824 153.094 47.4781C153.657 47.3375 154.043 47.1969 154.254 47.0563C154.325 47.0211 154.439 46.9508 154.597 46.8453C154.896 46.6168 155.116 46.4674 155.256 46.3971C155.362 46.3444 155.423 46.318 155.441 46.318C155.511 46.2828 155.634 46.2213 155.81 46.1334C156.232 45.9225 156.531 45.7819 156.706 45.7115C158.218 44.8502 159.651 43.7252 161.004 42.3365C162.375 40.9479 163.527 39.4713 164.458 37.9069C164.564 37.7311 164.643 37.5905 164.696 37.485C165.153 36.6412 165.513 35.7272 165.777 34.7428C166.058 33.7408 165.944 33.2223 165.434 33.1871L165.355 33.1608C163.773 33.319 162.103 34.0309 160.345 35.2965C158.605 36.5446 156.996 37.942 155.52 39.4889C154.043 41.0182 152.4 42.8463 150.589 44.9733C149.077 46.7662 148.111 47.8297 147.689 48.1637ZM146.555 25.5406L147.557 19.5026H147.293L146.318 25.567L146.555 25.5406ZM146.318 26.7008L146.423 25.9625L146.239 25.9889L146.08 26.859L146.318 26.7008ZM173.37 31.3942L173.159 31.4205L172.711 34.6373L172.421 34.8219L172.579 28.5992C172.632 28.2301 172.641 27.6412 172.606 26.8326C172.588 26.2877 172.579 25.8834 172.579 25.6198C172.597 25.3033 172.571 24.8375 172.5 24.2223C172.448 23.8356 172.412 23.5543 172.395 23.3785C172.377 23.1324 172.333 22.7897 172.263 22.3502C172.245 22.192 172.237 22.069 172.237 21.9811C172.219 21.9283 172.21 21.8405 172.21 21.7174C172.193 21.5416 172.184 21.401 172.184 21.2955C172.201 20.8912 172.245 20.5748 172.316 20.3463C172.386 20.1178 172.562 19.8893 172.843 19.6608C173.124 19.3619 173.625 19.0016 174.346 18.5797C174.434 18.527 174.504 18.483 174.557 18.4479C174.698 18.2897 175.111 17.9733 175.796 17.4987C176.411 17.0592 176.895 16.6989 177.246 16.4176C177.598 16.1188 177.826 15.8639 177.932 15.653C177.95 15.3541 177.888 14.9586 177.747 14.4664C177.624 14.0797 177.598 13.8248 177.668 13.7018C177.756 13.5612 178.055 13.5172 178.565 13.5699C178.934 13.7457 179.268 13.9918 179.567 14.3082C179.707 14.484 179.839 14.6598 179.962 14.8356C180.208 14.6246 180.41 14.4928 180.569 14.4401C180.762 14.4401 181.017 14.6158 181.333 14.9674C181.667 15.3014 182.08 15.7584 182.573 16.3385C183.03 16.8658 183.311 17.1735 183.416 17.2614C183.522 17.3492 183.645 17.4899 183.785 17.6832C183.909 17.8239 183.996 17.9293 184.049 17.9996C184.102 18.0524 184.181 18.1403 184.286 18.2633C184.304 18.2809 184.313 18.2985 184.313 18.316C184.313 18.316 184.322 18.3248 184.339 18.3424C184.462 18.5533 184.559 18.7028 184.629 18.7906C184.647 18.8082 184.673 18.8346 184.708 18.8698C184.796 19.0104 184.884 19.0983 184.972 19.1334C185.183 19.274 185.324 19.3883 185.394 19.4762C185.464 19.5465 185.543 19.6696 185.631 19.8453C185.666 19.9332 185.701 20.0035 185.737 20.0563C185.983 20.443 186.273 21.0494 186.607 21.8756C186.765 22.2623 186.888 22.5524 186.976 22.7457C187.011 22.816 187.055 22.9215 187.108 23.0621C187.16 23.2028 187.204 23.3082 187.24 23.3785C187.398 23.7125 187.644 24.0905 187.978 24.5123C188.154 24.7233 188.294 24.899 188.4 25.0397C188.417 25.0924 188.444 25.2418 188.479 25.4879C188.514 25.8395 188.558 26.0856 188.611 26.2262C188.611 26.2438 188.619 26.2789 188.637 26.3317C188.672 26.4371 188.699 26.4987 188.716 26.5162L198.63 41.9938C198.753 39.9196 198.999 36.7731 199.368 32.5543C199.404 32.2028 199.43 31.9391 199.448 31.7633C199.448 31.6578 199.456 31.4821 199.474 31.236C199.597 29.6188 199.623 28.5377 199.553 27.9928C199.535 27.7643 199.474 27.6412 199.368 27.6237C199.281 27.6061 199.201 27.7555 199.131 28.0719C199.008 28.7223 198.841 29.6715 198.63 30.9196L198.419 30.9987C198.472 28.9772 198.586 27.0612 198.762 25.2506C198.867 24.0377 198.947 22.192 198.999 19.7135C199.052 17.6217 199.114 16.0573 199.184 15.0201C199.184 14.9674 199.193 14.8795 199.21 14.7565C199.21 14.7389 199.21 14.7301 199.21 14.7301C199.228 14.6422 199.245 14.5104 199.263 14.3346C199.386 13.2448 199.5 12.4362 199.606 11.9088C199.817 10.9244 200.326 10.0983 201.135 9.4303C201.873 8.79749 202.506 8.09436 203.034 7.32092C203.051 7.30334 203.069 7.28577 203.086 7.26819C203.455 6.86389 203.895 6.74963 204.405 6.92542C204.616 6.96057 204.976 6.87268 205.486 6.66174C205.995 6.45081 206.672 6.14319 207.516 5.73889C208.676 5.17639 209.344 4.89514 209.52 4.89514C209.784 4.87756 210.003 5.02698 210.179 5.34338C210.531 5.92346 210.592 6.60901 210.364 7.40002C210.346 7.50549 210.284 7.67249 210.179 7.901C210.074 8.12952 210.003 8.31409 209.968 8.45471C209.88 8.77112 209.678 9.41272 209.362 10.3795C208.641 12.5768 208.245 13.9567 208.175 14.5192C208.175 14.5192 208.175 14.528 208.175 14.5455C208.193 14.5807 208.201 14.5983 208.201 14.5983C208.201 15.2487 208.122 15.7848 207.964 16.2067C207.929 16.3649 207.894 16.4879 207.859 16.5758C207.05 20.3375 206.549 23.1061 206.356 24.8815C206.338 25.0573 206.338 25.2858 206.356 25.567C206.409 26.0768 206.373 26.5338 206.25 26.9381C205.951 27.8698 205.679 29.0299 205.433 30.4186C205.363 30.8405 205.231 31.4821 205.037 32.3434C204.686 33.9078 204.484 35.068 204.431 35.8239C204.431 35.9821 204.378 36.3424 204.273 36.9049C204.185 37.4498 204.132 37.8102 204.115 37.986C204.115 38.109 204.079 38.3024 204.009 38.566C203.939 38.8121 203.895 38.9879 203.877 39.0934C203.789 39.7614 203.658 40.7369 203.482 42.0201C203.253 43.6022 203.086 44.903 202.981 45.9225C202.875 46.942 202.823 47.9615 202.823 48.9811C202.823 49.069 202.814 49.2448 202.796 49.5084C202.761 49.8424 202.752 50.0621 202.77 50.1676C202.805 50.3785 202.84 50.6686 202.875 51.0377C202.981 51.8112 203.077 52.4088 203.165 52.8307L203.086 53.7008L202.638 54.2809L201.583 54.5446C201.531 54.5621 201.495 54.4479 201.478 54.2018C201.46 54.0787 201.443 54.0172 201.425 54.0172C201.372 54.0524 201.311 54.2106 201.241 54.4918C201.17 54.7203 201.117 54.8434 201.082 54.861C200.836 54.984 200.309 55.1158 199.5 55.2565C198.657 55.4147 198.173 55.5553 198.05 55.6783C197.857 55.942 197.672 55.8805 197.496 55.4938C197.338 55.1071 197.215 54.7379 197.127 54.3864C196.881 53.2965 196.767 51.943 196.784 50.3258C196.837 48.0406 196.951 45.9752 197.127 44.1295L197.233 42.8903L196.916 42.5739L195.519 42.5211L183.627 29.5485C183.627 29.5485 183.618 29.5485 183.601 29.5485C183.601 29.5133 183.601 29.4957 183.601 29.4957C183.601 29.4781 183.566 29.4166 183.495 29.3112C183.478 29.2936 183.469 29.2848 183.469 29.2848C183.434 29.2848 183.399 29.3024 183.364 29.3375C183.328 29.3551 183.302 29.3727 183.284 29.3903C183.284 29.4078 183.284 29.4254 183.284 29.443C183.302 29.5485 183.32 29.61 183.337 29.6276L185.605 32.6334L185.447 32.9498C185.007 32.4049 184.322 31.526 183.39 30.3131C182.142 28.7311 181.219 27.5709 180.621 26.8326C180.586 26.7799 180.542 26.7184 180.49 26.6481C180.437 27.0875 180.358 27.7555 180.252 28.652C180.041 30.4977 179.874 31.8688 179.751 32.7653C179.699 33.152 179.602 33.8727 179.461 34.9274C178.617 41.1852 178.011 45.1315 177.642 46.7662C177.607 46.9596 177.528 47.3463 177.405 47.9264C177.176 49.0865 176.956 50.0533 176.745 50.8268C176.552 51.6002 176.341 52.1451 176.113 52.4615C175.867 52.8131 175.62 53.068 175.374 53.2262C175.128 53.3668 174.768 53.525 174.293 53.7008C174.205 53.8414 174.091 54.0172 173.951 54.2281C173.529 54.9313 173.195 55.3444 172.949 55.4674C172.562 55.3971 172.386 54.7379 172.421 53.4899C172.755 49.2184 173.01 45.316 173.186 41.7828C173.362 38.2496 173.423 34.7867 173.37 31.3942ZM199.421 39.3571C199.351 40.6403 199.289 41.9059 199.237 43.1539C199.201 44.2965 199.175 45.4215 199.158 46.5289C199.158 47.1266 199.166 47.733 199.184 48.3483C199.219 48.3483 199.272 48.3395 199.342 48.3219C199.395 48.3219 199.439 48.3219 199.474 48.3219C199.492 44.9645 199.641 41.4401 199.922 37.7487C200.063 35.9733 200.239 34.1627 200.45 32.317C200.467 32.2115 200.493 32.0533 200.529 31.8424C200.476 31.86 200.397 31.8776 200.291 31.8951C200.274 31.8951 200.256 31.8951 200.239 31.8951C199.905 34.444 199.632 36.9313 199.421 39.3571ZM198.525 44.024L198.235 43.9977L197.655 43.3912C197.584 45.1666 197.549 46.9684 197.549 48.7965C197.549 49.2711 197.558 49.7281 197.576 50.1676C197.54 50.4137 197.558 50.8707 197.628 51.5387C197.716 52.2067 197.822 52.5846 197.945 52.6725C198.156 52.8483 198.261 52.5406 198.261 51.7496C198.261 51.7321 198.261 51.7145 198.261 51.6969C198.296 50.9586 198.331 50.3961 198.367 50.0094C198.384 50.0094 198.393 50.0094 198.393 50.0094C198.393 49.9918 198.393 49.983 198.393 49.983C198.393 48.1022 198.437 46.1158 198.525 44.024ZM199.395 49.1393C199.36 49.1569 199.298 49.1744 199.21 49.192C199.175 49.192 199.14 49.192 199.105 49.192C199.105 49.4205 199.105 49.649 199.105 49.8776C199.14 49.8776 199.166 49.8776 199.184 49.8776C199.184 49.8776 199.237 49.8688 199.342 49.8512C199.377 49.8512 199.395 49.8512 199.395 49.8512C199.395 49.8336 199.395 49.8248 199.395 49.8248C199.412 49.7194 199.43 49.5612 199.448 49.3502C199.448 49.2272 199.456 49.1305 199.474 49.0602C199.456 49.0778 199.439 49.0953 199.421 49.1129C199.404 49.1305 199.395 49.1393 199.395 49.1393ZM174.082 25.1188L174.188 23.0358L173.924 23.0621L173.713 24.9606L173.687 26.569L173.45 29.1266L173.687 29.0739L173.766 28.7838L173.924 26.9381L174.082 25.1188ZM173.581 30.2076L173.608 29.4694L173.423 29.5221L173.344 30.3922L173.581 30.2076ZM209.599 19.9244C211.568 18.7819 213.194 17.2789 214.477 15.4156C214.477 15.3981 214.459 15.3717 214.424 15.3365C214.389 15.319 214.371 15.3014 214.371 15.2838C214.073 15.4596 213.783 15.6354 213.501 15.8112C213.449 15.776 213.387 15.7233 213.317 15.653C213.844 14.8619 214.336 14.1852 214.793 13.6227C215.268 13.0426 215.751 12.5944 216.243 12.278C216.701 11.9791 217.201 11.8912 217.746 12.0143C218.959 12.278 219.882 12.8932 220.515 13.86C221.148 14.8268 221.306 15.9078 220.99 17.1031C220.673 18.193 219.61 19.1862 217.799 20.0826C215.989 20.9791 214.284 21.6119 212.684 21.9811C212.596 21.9987 212.464 22.025 212.288 22.0602C211.919 22.1656 211.612 22.2272 211.366 22.2448C211.119 22.2623 210.909 22.2096 210.733 22.0865C210.575 21.9635 210.478 21.858 210.443 21.7701C210.425 21.6823 210.381 21.5768 210.311 21.4537C210.276 21.4362 210.241 21.4098 210.205 21.3746C209.819 21.111 209.573 20.8912 209.467 20.7155C209.344 20.399 209.388 20.1354 209.599 19.9244ZM211.497 47.7155C211.638 45.8522 211.752 44.0328 211.84 42.2574L211.629 42.2838L210.996 45.4742L210.68 45.6852L211.207 39.4625C211.278 39.0934 211.322 38.5045 211.339 37.6959C211.339 37.151 211.357 36.7467 211.392 36.483C211.409 36.1842 211.401 35.7184 211.366 35.0856C211.33 34.6989 211.313 34.4088 211.313 34.2155C211.313 33.9869 211.295 33.6442 211.26 33.1871C211.242 33.0465 211.234 32.9323 211.234 32.8444C211.234 32.7916 211.234 32.7037 211.234 32.5807C211.216 32.3873 211.216 32.2467 211.234 32.1588C211.269 31.7545 211.33 31.4381 211.418 31.2096C211.506 30.9811 211.7 30.7526 211.998 30.524C212.28 30.2428 212.798 29.9088 213.554 29.5221C213.642 29.4694 213.712 29.4254 213.765 29.3903C213.923 29.2496 214.284 28.986 214.846 28.5992C215.373 28.2477 215.786 27.9489 216.085 27.7028C216.402 27.4567 216.613 27.2281 216.718 27.0172C216.753 26.7184 216.718 26.3141 216.613 25.8043C216.525 25.4176 216.525 25.1627 216.613 25.0397C216.701 24.899 216.999 24.8727 217.509 24.9606C217.843 25.1364 218.151 25.3912 218.432 25.7252C218.784 26.1471 219.012 26.6393 219.117 27.2018C219.241 27.7467 219.302 28.3795 219.302 29.1002L219.276 32.3434C219.276 32.361 219.267 32.3873 219.249 32.4225C219.126 32.9147 219.082 33.2311 219.117 33.3717C219.117 33.442 219.126 33.5475 219.144 33.6881C219.197 34.0045 219.214 34.2067 219.197 34.2946C219.126 34.7516 218.994 35.4459 218.801 36.3776C218.784 36.4303 218.775 36.4655 218.775 36.483C218.757 36.5885 218.722 36.7291 218.669 36.9049C218.036 39.9459 217.535 42.2223 217.166 43.734C216.903 44.8063 216.472 46.4147 215.874 48.5592C215.839 48.735 215.804 48.858 215.769 48.9283C215.294 50.7037 214.881 51.8112 214.53 52.2506C214.266 52.5846 214.002 52.8219 213.739 52.9625C213.492 53.1031 213.123 53.2614 212.631 53.4371C212.543 53.5602 212.42 53.7272 212.262 53.9381C211.805 54.6237 211.445 55.028 211.181 55.151C210.812 55.0455 210.68 54.3688 210.785 53.1207C211.049 51.1871 211.286 49.3854 211.497 47.7155ZM222.519 47.7155C222.677 45.8522 222.791 44.0328 222.862 42.2574L222.651 42.2838L222.018 45.4742L221.728 45.6852L222.229 39.4625C222.299 39.0934 222.343 38.5045 222.361 37.6959C222.378 37.151 222.396 36.7467 222.413 36.483C222.449 36.1842 222.44 35.7184 222.387 35.0856C222.369 34.6989 222.361 34.4088 222.361 34.2155C222.361 33.9869 222.343 33.6442 222.308 33.1871C222.29 33.0465 222.273 32.9323 222.255 32.8444C222.273 32.7916 222.273 32.7037 222.255 32.5807C222.255 32.3873 222.255 32.2467 222.255 32.1588C222.29 31.7545 222.352 31.4381 222.44 31.2096C222.545 30.9811 222.739 30.7526 223.02 30.524C223.319 30.2428 223.837 29.9088 224.576 29.5221C224.681 29.4694 224.76 29.4254 224.813 29.3903C224.953 29.2496 225.305 28.986 225.867 28.5992C226.395 28.2477 226.808 27.9489 227.107 27.7028C227.423 27.4567 227.643 27.2281 227.766 27.0172C227.801 26.7184 227.757 26.3141 227.634 25.8043C227.546 25.4176 227.546 25.1627 227.634 25.0397C227.722 24.899 228.021 24.8727 228.531 24.9606C228.882 25.1364 229.199 25.3912 229.48 25.7252C229.831 26.1471 230.06 26.6393 230.165 27.2018C230.271 27.7467 230.324 28.3795 230.324 29.1002L230.297 32.3434C230.297 32.361 230.297 32.3873 230.297 32.4225C230.174 32.9147 230.121 33.2311 230.139 33.3717C230.157 33.442 230.174 33.5475 230.192 33.6881C230.244 34.0045 230.262 34.2067 230.244 34.2946C230.157 34.7516 230.016 35.4459 229.823 36.3776C229.805 36.4303 229.796 36.4655 229.796 36.483L229.612 37.4059C231.528 34.5406 233.259 32.3785 234.806 30.9196C234.824 30.8844 235.008 30.7174 235.36 30.4186C236.186 29.7506 236.871 29.2321 237.416 28.8629C237.487 28.8278 237.575 28.775 237.68 28.7047C238.067 28.4762 238.357 28.3092 238.55 28.2037C239.253 27.8346 239.992 27.6149 240.765 27.5446C241.89 27.5094 242.778 27.8961 243.428 28.7047C243.973 28.8981 244.43 29.1266 244.799 29.3903C245.186 29.6364 245.608 29.9615 246.065 30.3658C246.592 30.8229 247.023 31.1481 247.357 31.3414C247.603 31.3942 247.682 31.6315 247.594 32.0533C247.524 32.4576 247.322 32.9586 246.988 33.5563C247.199 34.4176 247.313 35.3844 247.33 36.4567C247.348 37.5289 247.339 38.777 247.304 40.2008C247.286 40.3414 247.269 40.5436 247.251 40.8073C247.234 41.0358 247.225 41.2115 247.225 41.3346C247.207 41.7565 247.225 42.4156 247.278 43.3121C247.313 43.7692 247.33 44.1031 247.33 44.3141C247.33 44.3317 247.33 44.3492 247.33 44.3668C247.33 44.4196 247.33 44.4547 247.33 44.4723C247.119 46.5465 246.821 48.9371 246.434 51.6442C246.434 51.6793 246.425 51.7233 246.408 51.776C246.355 52.0573 246.258 52.277 246.117 52.4352C245.977 52.611 245.792 52.9274 245.564 53.3844C245.335 53.8239 245.151 54.1403 245.01 54.3336C244.905 54.316 244.817 54.3073 244.746 54.3073C244.764 54.0612 244.729 53.7711 244.641 53.4371L243.718 54.1754C243.402 54.4391 242.953 54.7731 242.373 55.1774C241.793 55.5817 241.407 55.8014 241.213 55.8365C241.037 55.8717 240.844 55.819 240.633 55.6783C240.246 55.4323 240.044 55.0895 240.027 54.65C240.027 54.5797 240.035 54.4742 240.053 54.3336C240.071 54.2106 240.079 54.1139 240.079 54.0436C240.062 53.7975 240.062 53.4371 240.079 52.9625C240.079 52.6989 240.079 52.5055 240.079 52.3824V52.3297H240.053C240.809 48.5153 241.389 45.3864 241.793 42.943C242.198 40.4996 242.505 38.0035 242.716 35.4547C242.751 34.9449 242.918 34.4791 243.217 34.0573L243.296 33.9518C242.593 34.1979 241.934 34.5143 241.319 34.901C240.703 35.2877 239.948 35.8151 239.051 36.483C238.998 36.5182 238.963 36.5446 238.946 36.5621C238.875 36.6149 238.761 36.694 238.603 36.7994C236.441 38.399 234.367 40.1744 232.38 42.1256C230.411 44.0592 228.469 46.6432 226.553 49.8776C226.184 51.108 225.859 51.899 225.577 52.2506C225.296 52.5846 225.033 52.8219 224.786 52.9625C224.54 53.1031 224.171 53.2614 223.679 53.4371C223.574 53.5602 223.451 53.7272 223.31 53.9381C222.835 54.6237 222.475 55.028 222.229 55.151C221.86 55.0455 221.719 54.3688 221.807 53.1207C222.071 51.1871 222.308 49.3854 222.519 47.7155ZM239.341 30.0231C239.306 30.0231 239.253 30.0143 239.183 29.9967C239.183 29.9967 239.174 29.9879 239.157 29.9703C239.104 29.9703 239.069 29.9703 239.051 29.9703C239.034 29.9703 239.007 29.9791 238.972 29.9967C238.937 30.0143 238.91 30.0231 238.893 30.0231C238.629 30.1989 238.392 30.3746 238.181 30.5504C237.988 30.691 237.759 30.8844 237.495 31.1305C237.443 31.1656 237.372 31.2008 237.284 31.236C237.232 31.2887 237.161 31.359 237.074 31.4469C236.986 31.5348 236.907 31.6051 236.836 31.6578L237.126 31.6842C237.214 31.6139 237.381 31.4996 237.627 31.3414C237.873 31.1832 238.04 31.0778 238.128 31.025C238.304 30.902 238.559 30.7438 238.893 30.5504C238.963 30.4801 239.069 30.3834 239.209 30.2604C239.209 30.2428 239.218 30.2252 239.236 30.2076C239.253 30.1725 239.262 30.1461 239.262 30.1285C239.28 30.111 239.297 30.0934 239.315 30.0758C239.315 30.0582 239.324 30.0406 239.341 30.0231ZM239.895 29.5748C239.895 29.61 239.877 29.6539 239.842 29.7067C239.842 29.7242 239.833 29.7418 239.816 29.7594C239.798 29.7946 239.789 29.8121 239.789 29.8121C239.912 29.7946 240 29.7858 240.053 29.7858L240.528 29.6539L240.607 29.4957L240.396 29.443C240.308 29.4606 240.159 29.5045 239.948 29.5748C239.93 29.5748 239.912 29.5748 239.895 29.5748ZM241.477 29.1793C241.354 29.2321 241.231 29.2848 241.108 29.3375C241.16 29.3551 241.24 29.3815 241.345 29.4166C241.538 29.3639 241.749 29.3199 241.978 29.2848C241.978 29.2848 241.987 29.2672 242.004 29.2321C242.004 29.2321 242.004 29.2233 242.004 29.2057C242.004 29.2057 242.004 29.1969 242.004 29.1793C242.022 29.1617 242.031 29.1442 242.031 29.1266C242.013 29.109 241.987 29.0914 241.951 29.0739C241.916 29.0563 241.89 29.0387 241.872 29.0211C241.855 29.0211 241.846 29.0299 241.846 29.0475C241.688 29.1002 241.565 29.1442 241.477 29.1793ZM252.314 19.9244C254.265 18.7819 255.891 17.2789 257.192 15.4156C257.174 15.3981 257.157 15.3717 257.139 15.3365C257.104 15.319 257.086 15.3014 257.086 15.2838C256.787 15.4596 256.497 15.6354 256.216 15.8112C256.163 15.776 256.102 15.7233 256.032 15.653C256.559 14.8619 257.051 14.1852 257.508 13.6227C257.983 13.0426 258.466 12.5944 258.958 12.278C259.415 11.9791 259.916 11.8912 260.461 12.0143C261.674 12.278 262.597 12.8932 263.23 13.86C263.863 14.8268 264.021 15.9078 263.704 17.1031C263.388 18.193 262.325 19.1862 260.514 20.0826C258.703 20.9791 256.998 21.6119 255.399 21.9811C255.311 21.9987 255.179 22.025 255.003 22.0602C254.634 22.1656 254.326 22.2272 254.08 22.2448C253.834 22.2623 253.623 22.2096 253.448 22.0865C253.272 21.9635 253.175 21.858 253.158 21.7701C253.14 21.6823 253.087 21.5768 252.999 21.4537C252.982 21.4362 252.955 21.4098 252.92 21.3746C252.534 21.111 252.287 20.8912 252.182 20.7155C252.059 20.399 252.103 20.1354 252.314 19.9244ZM261.938 30.0758C261.938 30.1461 261.938 30.2604 261.938 30.4186C261.973 30.8053 261.982 31.0953 261.964 31.2887C261.929 32.027 261.771 33.1871 261.49 34.7692C261.454 34.9801 261.428 35.1295 261.41 35.2174C260.866 38.3463 260.268 41.194 259.617 43.7604C259.67 43.9889 259.723 44.2174 259.776 44.4459C259.705 44.9908 259.512 45.7994 259.196 46.8717C259.02 47.4166 258.906 47.8209 258.853 48.0846C258.695 48.6647 258.536 49.2448 258.378 49.8248C258.343 49.9127 258.255 50.0446 258.115 50.2203C257.974 50.4313 257.886 50.5807 257.851 50.6686C257.833 50.7213 257.807 50.7916 257.772 50.8795C257.737 51.0201 257.71 51.1256 257.693 51.1959C256.972 52.778 256.199 54.2018 255.372 55.4674C254.845 56.2408 254.256 57.0406 253.606 57.8668C253.535 57.9371 253.439 58.0338 253.316 58.1569C253.21 58.2448 253.14 58.3151 253.105 58.3678C253.052 58.4205 252.973 58.5084 252.867 58.6315C251.602 60.108 250.6 61.233 249.862 62.0065C249.651 62.1471 249.299 62.358 248.807 62.6393C248.719 62.692 248.658 62.736 248.622 62.7711C248.605 62.7711 248.57 62.7887 248.517 62.8239C248.429 62.859 248.367 62.8942 248.332 62.9293C248.332 62.9293 248.306 62.9469 248.253 62.9821C248.148 63.0524 248.077 63.0963 248.042 63.1139C245.617 64.8014 242.962 65.9615 240.079 66.5944C239.71 66.6647 239.341 66.7262 238.972 66.7789C238.743 66.6207 238.524 66.4625 238.313 66.3043C238.471 66.0934 238.62 65.8824 238.761 65.6715C239.359 65.4254 239.939 65.1617 240.501 64.8805C240.677 64.4586 240.835 64.0367 240.976 63.6149C242.505 62.6832 243.894 61.567 245.142 60.2662C246.372 58.9479 247.471 57.4449 248.438 55.7574C248.438 55.7574 248.447 55.7487 248.464 55.7311C248.534 55.608 248.578 55.5201 248.596 55.4674C248.578 55.4323 248.543 55.3971 248.491 55.3619C248.491 55.3444 248.482 55.3356 248.464 55.3356C248.464 55.3356 248.455 55.3444 248.438 55.3619C248.367 55.4147 248.324 55.441 248.306 55.441C247.234 57.1285 246.038 58.5963 244.72 59.8444C244.421 60.108 244.122 60.3717 243.824 60.6354C243.806 60.5123 243.797 60.3805 243.797 60.2399C243.885 60.1344 244.034 59.9674 244.245 59.7389C244.333 59.651 244.395 59.5895 244.43 59.5543C246.241 57.6031 247.743 55.441 248.939 53.068C248.956 53.068 248.974 53.0416 248.992 52.9889C249.097 52.778 249.159 52.6549 249.176 52.6198C249.422 52.1627 249.607 51.7936 249.73 51.5123C250.222 50.2467 250.688 48.5328 251.127 46.3707C251.127 46.3531 251.136 46.3268 251.154 46.2916C251.154 46.2037 251.162 46.1422 251.18 46.1071C252.164 42.7496 252.973 38.8297 253.606 34.3473C253.623 34.3121 253.641 34.2155 253.659 34.0573C253.659 34.0045 253.659 33.9694 253.659 33.9518C253.676 33.8639 253.711 33.6178 253.764 33.2135C253.852 32.5104 253.922 32.0006 253.975 31.6842C254.01 31.4733 254.063 31.2887 254.133 31.1305C254.168 31.0778 254.195 31.0426 254.212 31.025C254.318 30.8492 254.458 30.6823 254.634 30.524C254.933 30.2252 255.443 29.8737 256.163 29.4694C256.269 29.399 256.339 29.3551 256.374 29.3375C256.533 29.1793 256.884 28.8981 257.429 28.4938C257.939 28.1246 258.343 27.817 258.642 27.5709C258.941 27.3073 259.143 27.0699 259.248 26.859C259.284 26.5602 259.231 26.1559 259.09 25.6461C258.985 25.2594 258.976 25.0045 259.064 24.8815C259.152 24.7408 259.451 24.7057 259.96 24.776C260.312 24.9342 260.637 25.1715 260.936 25.4879C261.287 25.8922 261.525 26.3756 261.648 26.9381C261.788 27.483 261.867 28.1158 261.885 28.8365L261.938 30.0758ZM263.731 52.3297C262.94 51.4508 262.395 50.5807 262.096 49.7194C261.797 48.8932 261.753 47.9088 261.964 46.7662C262.14 45.7467 262.5 44.5778 263.045 43.2594C263.467 42.2399 263.959 41.2291 264.522 40.2272C264.592 40.1041 264.592 39.8756 264.522 39.5416C264.451 39.2252 264.478 38.9615 264.601 38.7506C265.251 37.8014 266.034 36.7906 266.948 35.7184C267.106 35.5602 267.343 35.3053 267.659 34.9537C268.925 33.6002 269.927 32.6334 270.665 32.0533C270.824 31.9303 271.043 31.7545 271.325 31.526C272.203 30.8229 272.871 30.3043 273.328 29.9703C273.346 29.9352 273.557 29.7946 273.961 29.5485C274.875 28.986 275.631 28.5553 276.229 28.2565C276.299 28.2213 276.396 28.1774 276.519 28.1246C276.923 27.9489 277.231 27.8258 277.442 27.7555C278.409 27.4391 279.182 27.3073 279.762 27.36C280.887 27.483 281.722 28.0016 282.267 28.9156C282.794 29.1793 283.225 29.4694 283.559 29.7858C283.893 30.0846 284.262 30.4713 284.666 30.9459C285.141 31.4908 285.528 31.8864 285.826 32.1324C285.932 32.1676 286.125 32.2291 286.407 32.317C287.285 32.5807 287.927 32.8444 288.331 33.108C288.753 33.3541 288.709 33.6442 288.2 33.9781C287.901 34.0309 287.452 34.0485 286.855 34.0309C286.802 34.0309 286.758 34.0309 286.723 34.0309C286.617 34.0309 286.503 34.0309 286.38 34.0309C286.31 34.0133 286.196 34.0045 286.037 34.0045C284.825 33.9694 283.928 33.9694 283.348 34.0045C282.926 34.0045 282.504 34.0309 282.082 34.0836C281.151 34.2418 280.193 34.5494 279.208 35.0065C278.646 35.1471 278.259 35.2965 278.048 35.4547C277.978 35.4899 277.864 35.569 277.705 35.692C277.407 35.9381 277.187 36.0963 277.046 36.1666C276.941 36.2194 276.888 36.2457 276.888 36.2457C276.8 36.2809 276.668 36.3512 276.492 36.4567C276.088 36.6852 275.798 36.8346 275.622 36.9049C274.128 37.8365 272.713 39.0319 271.377 40.4908C270.059 41.9323 268.951 43.4528 268.055 45.0524C267.95 45.2457 267.879 45.3951 267.844 45.5006C267.492 46.1686 267.185 46.9508 266.921 47.8473C266.675 48.7262 266.658 49.3326 266.868 49.6666C266.939 49.8073 267.062 49.8864 267.238 49.9039C268.486 49.9742 270.103 49.3766 272.089 48.111C274.093 46.8278 276.027 45.0875 277.89 42.8903C278.663 41.9586 279.331 41.0533 279.894 40.1744C280.456 39.2955 281.098 38.1881 281.819 36.8522C281.924 36.6237 282.038 36.5358 282.161 36.5885C282.232 36.6237 282.284 36.7203 282.32 36.8785C282.32 36.8961 282.32 36.9137 282.32 36.9313C282.32 37.1422 282.399 37.1949 282.557 37.0895C282.821 36.8961 283.234 36.36 283.796 35.4811C284.06 35.0592 284.209 34.8483 284.244 34.8483C284.508 34.7955 284.948 34.8043 285.563 34.8746C286.178 34.9449 286.486 35.0504 286.486 35.191C286.503 35.3317 286.477 35.5953 286.407 35.9821C286.354 36.316 286.196 37.1422 285.932 38.4606C285.58 40.0953 285.326 41.3434 285.167 42.2047C285.167 42.2574 285.15 42.3453 285.115 42.4684C283.972 48.7262 283.796 52.0924 284.587 52.567C284.781 52.6725 285.071 52.6637 285.457 52.5406C285.545 52.5055 285.589 52.4879 285.589 52.4879C285.659 52.6989 285.378 53.0416 284.745 53.5162C284.13 53.9733 283.445 54.193 282.689 54.1754C282.513 54.2281 282.276 54.2281 281.977 54.1754C281.696 54.1227 281.467 54.0172 281.291 53.859C280.36 53.9821 279.701 53.7448 279.314 53.1471C278.945 52.6198 278.69 51.7321 278.549 50.484C278.426 49.2184 278.373 48.0055 278.391 46.8453C276.897 48.9371 275.385 50.7037 273.856 52.1451C272.344 53.5865 270.841 54.5094 269.347 54.9137C268.486 55.1422 267.87 55.2125 267.501 55.1246C267.044 55.0367 266.455 54.7291 265.735 54.2018C265.014 53.6744 264.346 53.0504 263.731 52.3297ZM280.316 53.1471C280.474 53.358 280.729 53.5074 281.08 53.5953C280.764 53.2614 280.474 52.7604 280.21 52.0924C280.122 52.0748 280.034 52.066 279.947 52.066C280.052 52.5582 280.175 52.9186 280.316 53.1471ZM279.867 51.4069L279.947 51.5651L280.184 51.486L280.105 50.774L280.052 50.6686L279.815 50.8268L279.867 51.4069Z" fill="#313131"/>
<defs>
<filter id="filter0_d_672_10" x="0.0299683" y="4.12698" width="52.3348" height="40.7698" filterUnits="userSpaceOnUse" color-interpolation-filters="sRGB">
<feFlood flood-opacity="0" result="BackgroundImageFix"/>
<feColorMatrix in="SourceAlpha" type="matrix" values="0 0 0 0 0 0 0 0 0 0 0 0 0 0 0 0 0 0 127 0" result="hardAlpha"/>
<feOffset/>
<feGaussianBlur stdDeviation="8.5"/>
<feColorMatrix type="matrix" values="0 0 0 0 1 0 0 0 0 1 0 0 0 0 1 0 0 0 0.314 0"/>
<feBlend mode="normal" in2="BackgroundImageFix" result="effect1_dropShadow_672_10"/>
<feBlend mode="normal" in="SourceGraphic" in2="effect1_dropShadow_672_10" result="shape"/>
</filter>
<filter id="filter1_d_672_10" x="35.5712" y="4.12698" width="52.3348" height="40.7698" filterUnits="userSpaceOnUse" color-interpolation-filters="sRGB">
<feFlood flood-opacity="0" result="BackgroundImageFix"/>
<feColorMatrix in="SourceAlpha" type="matrix" values="0 0 0 0 0 0 0 0 0 0 0 0 0 0 0 0 0 0 127 0" result="hardAlpha"/>
<feOffset/>
<feGaussianBlur stdDeviation="8.5"/>
<feColorMatrix type="matrix" values="0 0 0 0 1 0 0 0 0 1 0 0 0 0 1 0 0 0 0.314 0"/>
<feBlend mode="normal" in2="BackgroundImageFix" result="effect1_dropShadow_672_10"/>
<feBlend mode="normal" in="SourceGraphic" in2="effect1_dropShadow_672_10" result="shape"/>
</filter>
<linearGradient id="paint0_linear_672_10" x1="18.7224" y1="32.2689" x2="44.8142" y2="68.3743" gradientUnits="userSpaceOnUse">
<stop offset="0.163462" stop-color="#99494A"/>
<stop offset="0.658654" stop-color="#99494A" stop-opacity="0.509202"/>
<stop offset="1" stop-color="#99494A" stop-opacity="0"/>
</linearGradient>
<linearGradient id="paint1_linear_672_10" x1="15.9017" y1="7.02331" x2="72.5984" y2="7.02331" gradientUnits="userSpaceOnUse">
<stop stop-color="#99494A"/>
<stop offset="1" stop-color="#99494A" stop-opacity="0"/>
</linearGradient>
</defs>
</svg>
